<svg xmlns="http://www.w3.org/2000/svg" x="0px" y="0px" viewBox="50 67 400 400">
    <ellipse style="stroke: rgb(0, 0, 0); stroke-width: 16px; paint-order: fill; fill: rgb(73, 86, 129);" cx="250.798" cy="259.569" rx="184.211" ry="184.211"></ellipse>
    <ellipse style="fill: rgb(219, 165, 37); paint-order: fill;" cx="236.82" cy="201.258" rx="50.627" ry="50.627"></ellipse>
    <path style="stroke: rgb(0, 0, 0);" d="M 114.02 383.936 C 110.566 380.484 92.242 361.677 88.548 348.466 C 87.158 343.494 75.888 316.342 75.888 313.765 C 85.433 306.606 127.12 234.605 130.927 229.388 C 135.636 222.935 143.556 209.449 158.071 209.627 C 169.823 209.771 180.972 224.564 183.569 228.271 C 189.609 236.893 191.874 240.323 203.653 255.305 C 209.953 263.318 222.076 278.128 229.103 270.704 C 239.392 259.833 242.757 256.941 252.467 246.394 C 268.578 228.893 291.539 204.842 292.844 203.33 C 298.103 197.237 318.524 175.461 332.922 175.515 C 348.956 175.575 369.107 197.438 376.28 205.221 C 385.225 214.927 430.738 262.314 432.327 262.314 C 432.639 273.468 430.494 286.652 430.7 298.169 C 430.879 308.189 421.513 332.283 418.828 337.653 C 417.486 340.338 401.141 365.877 397.328 373.504 C 394.052 380.057 368.949 402.674 366.34 404.414 C 354.811 412.1 344.58 417.836 333.691 425.197 C 327.165 429.609 309.937 432.631 302.847 436.682 C 299.831 438.405 277.625 442.274 267.264 443.425 C 250.05 445.338 244.298 445.132 227.895 442.789 C 223.535 442.166 198.151 437.116 194.938 435.509 C 185.584 430.833 170.193 427.245 167.17 424.222 C 160.371 417.423 146.382 414.43 139.169 407.249 C 126.543 394.679 116.586 386.501 114.02 383.936 Z"></path>
</svg>